<?xml version="1.0" encoding="UTF-8" standalone="no"?>
<svg
   xmlns:svg="http://www.w3.org/2000/svg"
   xmlns="http://www.w3.org/2000/svg"
   height="129.64"
   width="100.00024"   
   viewBox="0 0 62.986777 81.655859"
   xml:space="preserve">
<g
   transform="matrix(-0.11725213,-0.11725213,0.11725213,-0.11725213,31.422261,109.79826)">
	<polygon
   style="fill:#ecf4f7"
   points="234.196,319.427 310.996,396.227 345.129,396.227 345.129,430.36 379.262,430.36 379.262,464.493 413.396,464.493 413.396,498.627 498.729,498.627 498.729,413.293 319.529,234.093 318.676,233.24 233.342,318.573 "
   transform="translate(-30.57288,-30.57288)" />
	<path
   style="fill:#93bada;fill-opacity:0.99607843;stroke:#51565f;stroke-width:14;stroke-miterlimit:4;stroke-dasharray:none;stroke-opacity:1"
   d="m 404.8518,11.637339 c -13.88668,0 -27.77331,5.419798 -38.61133,16.257813 L 26.930874,367.2028 c -21.6760315,21.67603 -21.6760315,55.54662 0,77.22265 l 107.841366,106.48785 56.90235,58.25196 c 21.42024,21.92883 55.54662,21.67603 77.22265,0 L 370.69727,507.36523 506.17578,371.88672 608.20489,269.85957 c 21.67603,-21.67603 21.67603,-55.54858 0,-77.22461 L 443.46313,27.895152 C 432.62512,17.057137 418.73848,11.637339 404.8518,11.637339 Z M 335.01991,193.11816 c 25.57451,2.2e-4 54.25097,28.67817 54.25074,54.25268 -2.4e-4,27.48916 -120.06804,148.14728 -148.14753,148.14753 -25.57451,2.3e-4 -54.25246,-28.67623 -54.25268,-54.25074 -2.3e-4,-25.12897 123.02051,-148.1497 148.14947,-148.14947 z"
   transform="matrix(0.62986625,0,0,0.62986625,-1,-1)"/>
</g>
<path
   style="fill:#51565f;stroke-width:0.16581956"
   d="M 31.723241,0.18945868 41.728711,10.194929 c 0.30017,0.30017 0.30017,0.70046 0,1.00063 l -3.50185,3.50185 3.50197,3.50197 c 0.30017,0.30017 0.30017,0.70047 0,1.00063 l -3.50197,3.50197 3.50197,3.50197 c 0.30017,0.30016 0.30017,0.70046 0,1.00063 l -3.50197,3.50197 3.50197,3.50197 c 0.10002,0.10001 0.20015,0.40018 0.30017,0.5002 v 10.32489 c 0,0.40029 -0.30017,0.70046 -0.70035,0.70034 -0.4003,0 -0.70046,-0.30016 -0.70035,-0.70034 v -10.12486 l -3.80213,-3.80214 c -0.30017,-0.30016 -0.30017,-0.70046 0,-1.00063 l 3.50197,-3.50197 -3.50197,-3.50197 c -0.30017,-0.30016 -0.30017,-0.70046 0,-1.00062 l 3.50197,-3.50197 -3.50197,-3.50197 c -0.30017,-0.30017 -0.30017,-0.70047 0,-1.00063 l 3.50197,-3.50197 -9.00497,-9.0049703 -9.30512,9.3051303 -1.2e-4,34.13821 c 0,0.4003 -0.30017,0.70047 -0.70035,0.70035 -0.4003,0 -0.70046,-0.30016 -0.70035,-0.70035 v -34.33812 c 0,-0.20003 0.10014,-0.30017 0.30017,-0.5002 L 30.922881,0.18945868 c -1.2e-4,-0.20015 0.50019,-0.30017 0.80036,0 z M 29.784681,11.493619 c 0.10347,0.11194 0.23758,0.31581 0.23758,0.51584 v 33.02379 c 0,0.4003 -0.30016,0.70047 -0.70034,0.70035 -0.4003,0 -0.70047,-0.30016 -0.70035,-0.70035 v -33.02379 c 0,-0.40029 0.30016,-0.70046 0.70035,-0.70034 0,0 0.31974,0.0298 0.46276,0.1845 z"/>
</svg>